# xmcd
#
# Track frame offsets:
#	183
#	14558
#	40683
#	53533
#	80483
#	95983
#	127958
#	179945
#	199658
#	211570
#	223645
#	250583
#
# Disc length: 3605 seconds
#
# Revision: 3
# Processed by: cddbd v1.5.1PL0 Copyright (c) Steve Scherf et al.
# Submitted via: EasyCDDAExtractor 8.0.0.2
#
DISCID=a40e130c
DTITLE=Chuck Berry - My Ding-A-Ling (The London Sessions)
DYEAR=1990
DGENRE=blues
TTITLE0=Let's Boogie
TTITLE1=Mean Old World
TTITLE2=I Will Not Let You Go
TTITLE3=London Berry Blues
TTITLE4=I Love You
TTITLE5=Reelin' and Rockin'
TTITLE6=My Ding-A-Ling
TTITLE7=Johnny B. Goode
TTITLE8=Tulane
TTITLE9=Have Mercy Judge
TTITLE10=My Dream
TTITLE11=Bio
EXTD=
EXTT0=
EXTT1=
EXTT2=
EXTT3=
EXTT4=
EXTT5=
EXTT6=
EXTT7=
EXTT8=
EXTT9=
EXTT10=
EXTT11=
PLAYORDER=
